<svg xmlns="http://www.w3.org/2000/svg">
  <symbol id="close" viewBox="0 0 13 13">
    <path d="M13 1.2L11.8 0L6.5 5.3L1.2 0L0 1.2L5.3 6.5L0 11.8L1.2 13L6.5 7.7L11.8 13L13 11.8L7.7 6.5L13 1.2Z"/>
  </symbol>
  <symbol id="increase" viewBox="0 0 13 13">
    <path d="M13 6H7V0H6V6H0V7H6V13H7V7H13V6Z"/>
  </symbol>
  <symbol id="decrease" viewBox="0 0 13 1">
    <path d="M0 0L0 1L13 1V0L0 0Z"/>
  </symbol>
  <symbol id="info" viewBox="0 0 1 9">
    <g clip-path="url(#clip0_33716_652)">
      <path d="M0 9H1L1 3H0L0 9Z" fill="white"/>
      <path d="M1 0H0V1H1V0Z" fill="white"/>
    </g>
    <defs>
      <clipPath id="clip0_33716_652">
        <rect width="1" height="9" fill="white"/>
      </clipPath>
    </defs>
  </symbol>
</svg>
